<?xml version="1.0" encoding="UTF-8" standalone="no"?>
<svg
   xmlns:dc="http://purl.org/dc/elements/1.1/"
   xmlns:cc="http://creativecommons.org/ns#"
   xmlns:rdf="http://www.w3.org/1999/02/22-rdf-syntax-ns#"
   xmlns:svg="http://www.w3.org/2000/svg"
   xmlns="http://www.w3.org/2000/svg"
   xmlns:sodipodi="http://sodipodi.sourceforge.net/DTD/sodipodi-0.dtd"
   xmlns:inkscape="http://www.inkscape.org/namespaces/inkscape"
   width="500.00003"
   height="111.30175"
   viewBox="0 0 500.00003 111.30175"
   version="1.1"
   id="svg28"
   sodipodi:docname="HeaderIcon.svg"
   style="fill:none"
   inkscape:version="0.92.4 (5da689c313, 2019-01-14)">
  <metadata
     id="metadata34">
    <rdf:RDF>
      <cc:Work
         rdf:about="">
        <dc:format>image/svg+xml</dc:format>
        <dc:type
           rdf:resource="http://purl.org/dc/dcmitype/StillImage" />
      </cc:Work>
    </rdf:RDF>
  </metadata>
  <defs
     id="defs32" />
  <sodipodi:namedview
     pagecolor="#ffffff"
     bordercolor="#666666"
     borderopacity="1"
     objecttolerance="10"
     gridtolerance="10"
     guidetolerance="10"
     inkscape:pageopacity="0"
     inkscape:pageshadow="2"
     inkscape:window-width="2400"
     inkscape:window-height="1261"
     id="namedview30"
     showgrid="false"
     inkscape:zoom="2.6865672"
     inkscape:cx="300.38756"
     inkscape:cy="13.6901"
     inkscape:window-x="-9"
     inkscape:window-y="2"
     inkscape:window-maximized="1"
     inkscape:current-layer="svg28" />
  <path
     d="m 92.667665,111.30175 c 0,-31.689474 0.02886,-62.552116 -0.0439,-93.414962 0,-2.623866 1.570734,-4.001022 3.315452,-5.175251 C 111.97745,1.9552255 129.77543,-1.3064645 148.73643,0.4476015 c 2.2248,0.202947 3.41708,1.246688 4.11505,3.50811 8.20082,26.5284105 16.44555,53.0423075 24.86467,79.4984395 1.4687,4.62399 -1.83212,3.189029 -3.66424,3.319517 -17.92888,1.188619 -35.55208,3.986591 -52.6082,9.813835 -9.98944,3.406915 -19.15002,8.408137 -28.776042,14.714247 z"
     id="path2"
     inkscape:connector-curvature="0"
     style="fill:#51ace4;stroke-width:4.06504631" />
  <path
     d="M 7.415762,64.637866 C 7.372144,64.10128 7.2412495,63.724451 7.3139732,63.391117 8.9812925,55.765903 13.711868,51.972809 21.505659,52.011427 c 5.641796,0.02886 11.167251,0.927643 16.678193,2.015043 3.591468,0.710164 6.52887,1.449596 8.258954,5.566674 1.439839,3.450005 5.249194,4.334152 8.869931,2.493093 3.911387,-1.985775 4.74025,-5.55204 3.155288,-9.219525 -1.526831,-3.536996 -4.972771,-5.349194 -8.491881,-3.566264 -2.966264,1.507725 -5.40895,1.130895 -8.215458,0.391463 -8.273466,-2.174393 -16.721608,-3.131305 -25.256985,-2.870329 -3.344395,0.101627 -3.926022,-0.797155 -2.995411,-3.957322 3.213501,-10.886884 3.097159,-10.785421 14.70063,-9.828672 11.632576,0.95679 22.901778,3.203704 33.530654,8.190459 2.181304,1.014635 3.708135,1.942685 3.969924,4.986592 0.406912,4.566672 4.463828,6.943911 8.6805,5.798788 3.911794,-1.058132 5.540251,-3.928461 5.132934,-7.799198 -0.406912,-3.913826 -4.100412,-6.624765 -8.258955,-5.754967 -1.977644,0.420367 -3.475207,0.173944 -5.118299,-0.66683 -12.795952,-6.537895 -26.464141,-9.393671 -40.772168,-9.97355 -1.992076,-0.08695 -6.354277,2.043987 -6.121635,-2.232442 0.203578,-3.682078 0.988782,-8.480377 7.328506,-7.262692 4.711185,0.913293 9.844038,-0.449391 12.85396,5.407161 1.614149,3.131224 5.656431,3.116712 8.709687,1.043742 3.257321,-2.203459 4.115046,-5.421674 2.355694,-9.016761 -1.671953,-3.435655 -5.089031,-5.160738 -8.099198,-3.479151 -6.470496,3.609599 -12.635748,0.492887 -18.757383,0.826302 C 23.439605,12.523203 23.323263,12.349219 23.352328,12.233244 27.612781,-0.7410185 23.74493,0.3607105 39.09991,0.1722555 c 14.75876,-0.173956 28.630729,3.377643 41.324649,11.1622465 3.838623,2.348418 6.368708,4.928747 5.554479,9.90103 -0.479676,2.928256 -0.0874,6.001512 -0.0874,10.321437 -5.394316,-4.682364 -12.141073,-5.175211 -15.340264,-11.59713 -1.73049,-3.450126 -5.714642,-3.667566 -9.058955,-1.507603 -3.344314,2.159962 -4.347567,5.465129 -2.471955,8.944239 1.78862,3.305208 4.726023,4.914316 8.680906,3.46468 7.735783,-2.826833 18.190268,4.421388 18.190268,12.612049 0,22.20816 0,44.416726 0,67.726916 C 59.762336,93.267986 30.54998,88.10741 0,86.454968 1.0905502,82.932199 2.602784,79.743171 2.9953821,76.437882 c 0.7415538,-6.276837 4.4639978,-7.219115 9.8294929,-6.943911 14.715182,0.739431 29.168738,2.595125 42.807781,8.610986 3.576834,1.580084 7.08131,2.725207 7.677652,7.813425 0.406911,3.566265 3.926022,5.001226 7.590254,4.349193 4.013014,-0.725204 5.859764,-3.479273 5.67074,-7.378872 -0.174391,-3.76911 -2.675614,-6.769927 -6.179683,-6.132122 C 65.316815,77.698859 61.667217,75.249262 57.653797,73.465927 41.629791,66.362665 24.719159,64.37689 7.415762,64.637866 Z"
     id="path4"
     inkscape:connector-curvature="0"
     style="fill:#26376c;stroke-width:4.06504631" />
  <path
     d="m 44.465568,15.407801 c 1.96301,0.536382 3.373581,1.638091 3.286183,3.711061 -0.101626,2.130979 -1.759352,3.2472 -3.635371,3.203704 -2.006507,-0.04345 -3.256915,-1.493132 -3.12602,-3.609598 0.130894,-2.101954 1.512197,-3.087728 3.489842,-3.305167 z"
     id="path6"
     inkscape:connector-curvature="0"
     style="fill:#26376c;stroke-width:4.06504631" />
  <path
     d="m 55.589566,55.244358 c 0,2.580085 -1.352441,3.826834 -3.300817,3.957322 -2.079271,0.130488 -3.300818,-1.217481 -3.38781,-3.363012 -0.07276,-1.986182 1.134148,-3.145939 2.8935,-3.290655 2.006507,-0.159756 3.358948,1.02927 3.780493,2.696345 z"
     id="path8"
     inkscape:connector-curvature="0"
     style="fill:#26376c;stroke-width:4.06504631" />
  <path
     d="m 73.037557,83.540737 c -0.378049,2.044311 -1.424799,3.348785 -3.649598,3.174801 -2.2248,-0.173984 -3.184557,-1.594311 -3.00976,-3.682119 0.159756,-1.884555 1.323172,-2.928053 3.24228,-2.899191 2.195938,0.0435 3.184557,1.362604 3.402444,3.406509 z"
     id="path10"
     inkscape:connector-curvature="0"
     style="fill:#26376c;stroke-width:4.06504631" />
  <path
     d="m 65.389579,20.800613 c 1.934149,0.52187 3.402444,1.493132 3.228053,3.69659 -0.17439,2.159962 -1.686587,3.218175 -3.707728,3.058744 -1.78862,-0.14496 -2.966264,-1.333701 -2.937402,-3.276183 0.01463,-2.217971 1.454067,-3.116752 3.417077,-3.479151 z"
     id="path12"
     inkscape:connector-curvature="0"
     style="fill:#26376c;stroke-width:4.06504631" />
  <path
     d="m 72.281865,42.008568 c 2.34106,-0.02886 3.62033,1.203254 3.707729,3.160167 0.0874,1.957319 -1.192279,3.406915 -3.228054,3.522769 -2.079271,0.115853 -3.344313,-1.18862 -3.460573,-3.218297 -0.116261,-2.087402 1.076017,-3.261387 2.980898,-3.450005 z"
     id="path14"
     inkscape:connector-curvature="0"
     style="fill:#26376c;stroke-width:4.06504631" />
  <path
     d="m 207.29302,56.760214 c 0,-9.71668 0.29146,-17.60352 -0.0878,-25.458937 -0.29147,-6.214927 0.90447,-9.432777 7.61465,-8.991109 9.42359,0.599431 18.90531,0.220854 28.35816,0.126179 3.38415,-0.03155 5.48455,0.694066 5.3679,5.110738 -0.0874,4.038136 -0.55407,6.877408 -5.25123,6.656594 -5.07643,-0.252398 -10.18213,0.157724 -15.25856,-0.09463 -5.01789,-0.252399 -8.05204,0.410123 -8.05204,7.382043 0,7.098383 2.62561,8.92806 8.46058,8.423182 3.96789,-0.346749 7.99391,0.09472 11.99067,-0.09431 3.93861,-0.157723 6.01016,1.07236 6.01016,5.930903 0,5.268299 -2.88821,5.489438 -6.41829,5.426023 -3.99717,-0.06301 -8.02319,0.347155 -11.99109,-0.09431 -6.38902,-0.69431 -7.90651,2.397564 -8.02318,8.896353 -0.14553,7.413831 3.70529,7.161392 8.31506,7.003668 4.34716,-0.157724 8.72318,0 13.09961,-0.03171 3.70489,-0.03171 7.14758,-0.504879 7.29351,5.647162 0.14594,5.867894 -2.65488,6.435781 -6.73944,6.056919 -1.07927,-0.09431 -2.18821,0.03171 -3.26748,0 -10.09433,-0.53618 -23.25247,4.543095 -29.46671,-1.924393 -6.3309,-6.561798 -1.10854,-20.884581 -1.98375,-29.938658 z"
     id="path16"
     inkscape:connector-curvature="0"
     style="fill:#26376c;stroke-width:4.06504631" />
  <path
     d="m 371.07982,47.958576 c 0,5.110982 0.0878,10.221558 0,15.332541 -0.37927,17.761405 -8.54798,26.058164 -25.44028,25.995156 -16.83376,-0.09472 -25.09027,-8.580906 -25.32361,-26.342311 -0.14593,-11.010178 0.1748,-22.020355 -0.11667,-32.998947 -0.14593,-5.363137 1.10854,-7.634563 6.59351,-7.666108 5.42643,-0.03154 6.73944,2.050613 6.5935,7.508384 -0.32113,10.978592 0,22.020477 -0.11666,32.998947 -0.0878,9.211801 4.02602,13.943921 12.45733,14.070344 8.54839,0.126016 12.66221,-4.73212 12.69108,-13.849612 0.0293,-11.010177 0.20447,-22.020355 -0.0581,-32.998865 -0.11666,-5.268463 0.93334,-7.697653 6.53497,-7.729198 5.89351,0 6.41871,3.091671 6.24351,8.013141 -0.20407,5.899398 -0.0585,11.79904 -0.0585,17.666528 z"
     id="path18"
     inkscape:connector-curvature="0"
     style="fill:#26376c;stroke-width:4.06504631" />
  <path
     d="m 381.37943,54.425658 c 0,-8.233751 0.26261,-16.499372 -0.0874,-24.733367 -0.2626,-5.64704 1.5752,-7.319075 6.7683,-7.445254 5.66017,-0.126179 6.56424,2.49228 6.41871,7.697653 -0.29187,9.811436 -0.0878,19.622831 -0.0878,29.434226 0,11.651642 5.22237,17.498397 15.66669,17.540267 2.187,0 4.34555,0.06341 6.5366,0 4.52033,-0.09472 3.87805,3.439029 4.02439,6.498789 0.14634,3.217891 -0.5813,5.205698 -4.08537,5.173991 -10.15042,-0.126016 -20.33336,-0.157724 -30.48622,0 -5.1057,0.09472 -4.66789,-3.565045 -4.66789,-7.129684 0,-9.022776 0,-18.045552 0,-27.067922 z"
     id="path20"
     inkscape:connector-curvature="0"
     style="fill:#26376c;stroke-width:4.06504631" />
  <path
     d="m 442.41162,56.444766 c 0,8.20245 -0.20325,16.4049 0.061,24.60735 0.14634,5.016266 -0.49594,7.95001 -6.27237,7.729278 -4.95935,-0.189431 -7.03253,-1.325205 -6.9431,-7.193099 0.32114,-17.193518 0.23171,-34.387037 0.0285,-51.580394 -0.061,-5.173828 0.84553,-7.603018 6.41871,-7.792286 6.41871,-0.220854 6.9431,2.996995 6.7683,8.423222 -0.29268,8.580987 -0.0894,17.193722 -0.0894,25.774628 z"
     id="path22"
     inkscape:connector-curvature="0"
     style="fill:#26376c;stroke-width:4.06504631" />
  <path
     d="m 488.21656,54.047608 c 8.57725,-5.331714 11.32117,-12.209366 8.34555,-20.695515 -2.80081,-7.981596 -9.36586,-10.505421 -16.68701,-10.757819 -6.88619,-0.252358 -13.82929,0.157764 -20.71548,-0.220814 -4.81302,-0.283943 -6.33335,1.577401 -6.15448,6.719684 0.31708,10.189932 0.0854,20.411369 0.0854,30.632927 0,21.13702 9.687,30.727683 29.05695,28.771583 0.34958,-0.03171 0.73171,0 1.0813,-0.06301 8.0244,-1.482929 14.76017,-4.858543 16.39433,-14.543515 1.6057,-9.401232 -1.86585,-16.026444 -11.43497,-19.843523 z M 472.92793,33.888394 c 6.04066,0.126179 11.81709,0.473212 11.41059,8.202288 -0.41057,8.013425 -6.71139,7.729278 -12.19514,8.328873 -7.29676,0.788619 -5.63415,-4.73212 -6.13009,-9.1805 -0.69919,-6.719684 2.36586,-8.233995 6.91464,-7.350661 z m -2.27236,43.441359 c -5.95122,1.26179 -4.08538,-4.953258 -4.64229,-9.843102 -1.07724,-9.211801 4.64229,-7.729279 9.60164,-7.697572 6.06911,0.03171 11.49189,1.735369 10.76424,9.71668 -0.84553,9.306516 -8.10977,6.940659 -15.69514,7.823994 z"
     id="path24"
     inkscape:connector-curvature="0"
     style="fill:#26376c;stroke-width:4.06504631" />
  <path
     d="m 309.37527,43.66792 c -4.90164,-17.729699 -21.15166,-26.499954 -45.2212,-20.568971 -10.85285,2.681548 -2.68375,15.868517 -4.87196,23.944585 -0.70041,2.523987 -0.11667,5.458137 -0.11667,8.20245 v 11.767495 c 0,14.658963 6.86587,21.862631 20.59719,21.610191 23.8358,-0.410163 36.58542,-19.780513 29.6419,-44.95575 z m -12.42848,20.506125 c -1.89634,8.517897 -7.73131,11.483348 -15.22928,12.556114 -7.52725,1.072765 -10.76547,-1.51423 -9.65693,-10.000826 0.49595,-3.848786 0.0874,-7.823588 0.0874,-11.767089 0,-2.366264 -0.23333,-4.763828 0.0585,-7.066676 0.58333,-4.416673 -2.39228,-10.947129 2.01301,-12.808473 5.60163,-2.397605 12.54514,-1.608945 17.56344,3.028581 7.61424,7.035173 7.2935,16.53112 5.19309,26.058369 z"
     id="path26"
     inkscape:connector-curvature="0"
     style="fill:#26376c;stroke-width:4.06504631" />
</svg>
